<?xml version="1.0" encoding="UTF-8" standalone="no"?>
<svg
   version="1.0"
   width="16"
   height="16"
   viewBox="0 0 12 12"
   preserveAspectRatio="xMidYMid"
   id="svg217"
   sodipodi:docname="Sequential.svg"
   inkscape:version="1.2.2 (b0a8486, 2022-12-01)"
   xmlns:inkscape="http://www.inkscape.org/namespaces/inkscape"
   xmlns:sodipodi="http://sodipodi.sourceforge.net/DTD/sodipodi-0.dtd"
   xmlns="http://www.w3.org/2000/svg"
   xmlns:svg="http://www.w3.org/2000/svg">
  <defs
     id="defs221" />
  <sodipodi:namedview
     id="namedview219"
     pagecolor="#505050"
     bordercolor="#ffffff"
     borderopacity="1"
     inkscape:showpageshadow="0"
     inkscape:pageopacity="0"
     inkscape:pagecheckerboard="1"
     inkscape:deskcolor="#505050"
     inkscape:document-units="pt"
     showgrid="false"
     inkscape:zoom="13.87769"
     inkscape:cx="11.096948"
     inkscape:cy="9.5476986"
     inkscape:window-width="1463"
     inkscape:window-height="685"
     inkscape:window-x="325"
     inkscape:window-y="164"
     inkscape:window-maximized="0"
     inkscape:current-layer="svg217" />
  <metadata
     id="metadata211">
Created by potrace 1.15, written by Peter Selinger 2001-2017
</metadata>
  <g
     transform="matrix(-9.3722135e-4,0,0,0.00127935,12.038317,1.8618513)"
     fill="#000000"
     stroke="none"
     id="g215"
     style="fill:#ee82ee;fill-opacity:1">
    <path
       d="m 3310,5925 c -36,-8 -92,-28 -125,-45 -33,-16 -352,-240 -710,-498 C 2118,5125 1465,4656 1025,4341 489,3957 203,3745 159,3701 -34,3507 -51,3203 119,2977 167,2912 3003,590 3097,538 c 216,-119 480,-82 655,93 111,111 164,239 162,394 -1,133 -35,235 -113,338 -22,29 -331,289 -814,685 l -778,637 5078,5 5078,5 59,22 c 241,91 391,319 372,563 -18,233 -162,415 -393,498 -45,16 -369,17 -5132,22 l -5084,5 794,570 c 445,319 818,594 849,625 176,177 206,470 70,678 -74,114 -185,200 -306,237 -72,23 -207,28 -284,10 z"
       id="path213"
       style="fill:#ee82ee;fill-opacity:1" />
  </g>
</svg>
