<?xml version="1.0" encoding="UTF-8" standalone="no"?>
<svg
   version="1.0"
   width="16"
   height="16"
   viewBox="0 0 12 12"
   preserveAspectRatio="xMidYMid"
   id="svg10"
   sodipodi:docname="Behavior.svg"
   inkscape:version="1.2.2 (b0a8486, 2022-12-01)"
   xmlns:inkscape="http://www.inkscape.org/namespaces/inkscape"
   xmlns:sodipodi="http://sodipodi.sourceforge.net/DTD/sodipodi-0.dtd"
   xmlns="http://www.w3.org/2000/svg"
   xmlns:svg="http://www.w3.org/2000/svg">
  <defs
     id="defs14" />
  <sodipodi:namedview
     id="namedview12"
     pagecolor="#505050"
     bordercolor="#ffffff"
     borderopacity="1"
     inkscape:showpageshadow="0"
     inkscape:pageopacity="0"
     inkscape:pagecheckerboard="1"
     inkscape:deskcolor="#505050"
     inkscape:document-units="pt"
     showgrid="false"
     inkscape:zoom="5.0747136"
     inkscape:cx="36.84937"
     inkscape:cy="21.6761"
     inkscape:window-width="1463"
     inkscape:window-height="456"
     inkscape:window-x="0"
     inkscape:window-y="0"
     inkscape:window-maximized="0"
     inkscape:current-layer="svg10" />
  <metadata
     id="metadata2">Created by potrace 1.15, written by Peter Selinger 2001-2017</metadata>
  <g
     transform="matrix(9.149807e-4,0,0,-0.00105608,0.23522629,11.863959)"
     fill="#ee82ee"
     stroke="none"
     id="g8">
    <path
       d="m 3165,10985 c -247,-44 -306,-193 -276,-688 12,-185 11,-200 -6,-234 -27,-55 -57,-71 -183,-97 -96,-20 -151,-39 -315,-114 -110,-50 -227,-100 -260,-111 l -60,-21 -66,73 c -36,39 -104,115 -151,167 -175,197 -297,281 -420,288 -59,4 -75,1 -130,-26 -35,-16 -89,-52 -120,-78 -96,-81 -342,-358 -379,-427 -31,-56 -34,-70 -34,-142 0,-68 5,-88 29,-135 44,-85 111,-163 289,-337 l 165,-161 -33,-49 c -106,-158 -215,-392 -286,-612 -23,-73 -52,-145 -65,-160 l -22,-26 H 553 C 224,8094 196,8089 116,8019 24,7938 0,7843 0,7568 c 1,-280 20,-383 89,-474 45,-61 131,-106 230,-123 40,-6 181,-11 328,-11 h 259 l 23,-72 c 66,-214 196,-491 282,-603 60,-79 71,-101 64,-128 -4,-12 -109,-123 -234,-247 -253,-251 -289,-300 -298,-398 -3,-33 -3,-76 1,-96 22,-117 375,-491 551,-584 72,-38 168,-37 247,2 79,40 167,117 291,254 59,64 151,164 205,222 l 99,104 99,-46 c 198,-93 344,-146 548,-199 137,-35 129,-16 116,-269 -13,-281 -13,-516 1,-582 21,-100 70,-173 141,-209 84,-43 161,-53 383,-52 400,1 497,35 572,200 55,120 63,251 37,626 -20,281 -26,263 105,302 165,49 317,107 474,183 86,41 158,73 160,71 23,-32 363,-401 413,-450 130,-123 219,-169 329,-169 118,0 178,39 419,271 250,240 301,363 218,525 -46,90 -133,184 -335,362 -102,90 -188,170 -191,179 -12,31 -4,70 25,123 144,255 186,344 246,515 60,173 75,181 323,176 394,-9 462,-7 515,12 103,35 164,117 185,247 18,112 24,385 11,499 -24,204 -67,284 -179,334 -96,43 -213,53 -464,39 -199,-11 -235,-10 -290,13 -30,12 -55,67 -82,178 -22,91 -42,140 -125,300 -107,209 -133,285 -111,336 6,16 69,82 138,146 162,148 262,261 304,344 29,58 33,75 33,147 0,72 -4,87 -37,156 -31,61 -67,107 -193,242 -223,238 -292,285 -416,286 -57,0 -77,-5 -139,-37 -77,-38 -184,-137 -415,-385 -141,-151 -131,-150 -375,-15 -36,19 -135,57 -220,82 -179,54 -264,91 -302,129 -33,34 -35,45 -27,171 12,184 9,416 -5,487 -31,142 -103,237 -213,278 -94,35 -507,51 -648,25 m 461,-2480 c 425,-72 715,-337 793,-722 72,-354 -44,-702 -305,-912 -399,-321 -1062,-299 -1427,47 -177,169 -267,390 -268,656 0,138 13,226 51,334 93,271 325,481 627,567 49,14 115,29 148,34 98,14 286,12 381,-4"
       id="path4" />
    <path
       d="m 8765,7710 c -126,-6 -217,-25 -278,-57 -49,-25 -108,-85 -134,-136 -50,-99 -57,-165 -58,-496 v -304 l -104,-24 c -220,-50 -443,-135 -660,-250 -145,-76 -172,-86 -209,-72 -15,6 -115,99 -222,209 -215,219 -281,269 -381,290 -55,12 -71,12 -127,-3 -97,-26 -184,-90 -357,-265 -175,-177 -224,-239 -269,-332 -27,-56 -31,-76 -31,-146 0,-74 4,-88 38,-156 46,-91 139,-197 348,-397 l 155,-149 -71,-144 c -112,-226 -195,-473 -220,-656 -12,-85 -17,-100 -42,-121 l -28,-24 -295,6 c -306,7 -424,0 -514,-29 -186,-61 -232,-182 -230,-609 0,-206 3,-254 22,-339 33,-153 87,-219 223,-268 63,-23 70,-23 359,-19 162,3 355,5 429,5 l 134,1 28,-83 c 65,-194 151,-379 273,-591 37,-64 66,-127 66,-142 0,-21 -13,-38 -52,-70 -81,-66 -393,-361 -479,-451 -92,-97 -133,-162 -154,-246 -27,-106 3,-196 113,-333 102,-128 395,-394 482,-439 124,-63 255,-43 410,63 77,53 196,175 382,390 149,172 185,207 207,207 14,0 121,-47 236,-104 193,-96 382,-171 528,-212 50,-13 56,-18 53,-37 -11,-52 -29,-605 -23,-708 9,-171 45,-273 123,-353 81,-83 161,-101 489,-112 392,-12 547,35 618,189 56,121 64,234 42,596 -19,314 -18,326 40,354 19,9 72,26 117,37 183,46 382,119 558,205 183,88 236,64 485,-225 208,-241 296,-308 421,-318 85,-6 141,15 249,95 129,96 368,339 437,443 75,115 92,163 86,244 -11,134 -113,266 -395,514 -81,71 -149,139 -162,163 -34,60 -25,110 37,212 80,132 99,176 152,355 54,185 87,268 126,319 46,61 58,63 285,54 388,-16 550,17 656,132 89,97 102,148 115,479 10,239 10,276 -6,354 -35,180 -102,251 -277,296 -80,20 -97,20 -339,13 -374,-12 -400,-12 -437,8 -43,23 -64,67 -102,212 -26,100 -45,145 -117,278 -108,197 -143,285 -144,355 0,62 -2,60 204,243 173,154 264,259 319,368 40,81 42,89 42,175 0,81 -3,97 -30,150 -34,67 -141,192 -320,372 -177,178 -259,226 -384,226 -141,-1 -287,-110 -551,-412 -135,-155 -167,-180 -229,-180 -48,0 -70,10 -189,88 -84,55 -144,81 -432,187 -69,25 -152,60 -185,78 l -60,32 v 55 c 0,30 6,145 13,254 23,334 -8,507 -106,609 -99,103 -231,121 -697,97 z m 359,-2704 c 55,-14 148,-50 210,-79 540,-262 839,-851 686,-1352 -81,-267 -302,-521 -563,-649 -152,-74 -233,-91 -427,-90 -150,1 -173,3 -255,28 -192,58 -351,144 -487,265 -283,251 -438,566 -438,891 0,259 104,498 306,705 151,155 344,261 549,301 107,20 297,12 419,-20 z"
       id="path6" />
  </g>
</svg>
