<?xml version="1.0" encoding="UTF-8" standalone="no"?>
<svg
   version="1.0"
   width="16"
   height="16"
   viewBox="0 0 12 12"
   preserveAspectRatio="xMidYMid"
   id="svg9289"
   sodipodi:docname="Condition.svg"
   inkscape:version="1.2.2 (b0a8486, 2022-12-01)"
   xmlns:inkscape="http://www.inkscape.org/namespaces/inkscape"
   xmlns:sodipodi="http://sodipodi.sourceforge.net/DTD/sodipodi-0.dtd"
   xmlns="http://www.w3.org/2000/svg"
   xmlns:svg="http://www.w3.org/2000/svg">
  <defs
     id="defs9293" />
  <sodipodi:namedview
     id="namedview9291"
     pagecolor="#505050"
     bordercolor="#ffffff"
     borderopacity="1"
     inkscape:showpageshadow="0"
     inkscape:pageopacity="0"
     inkscape:pagecheckerboard="1"
     inkscape:deskcolor="#505050"
     inkscape:document-units="pt"
     showgrid="false"
     inkscape:zoom="19.360825"
     inkscape:cx="12.809372"
     inkscape:cy="6.1722577"
     inkscape:window-width="1463"
     inkscape:window-height="707"
     inkscape:window-x="0"
     inkscape:window-y="0"
     inkscape:window-maximized="0"
     inkscape:current-layer="svg9289" />
  <metadata
     id="metadata9281">
Created by potrace 1.15, written by Peter Selinger 2001-2017
</metadata>
  <g
     transform="matrix(9.4984366e-4,0,0,-9.5185009e-4,-0.06815392,12.102593)"
     fill="#000000"
     stroke="none"
     id="g9287"
     style="fill:#ee82ee;fill-opacity:1">
    <path
       d="M 6269,12693 C 5090,12672 3919,12308 2935,11655 1643,10799 717,9517 320,8032 174,7487 110,6989 110,6400 110,6002 131,5732 191,5367 520,3366 1807,1639 3635,745 4304,418 4987,221 5730,141 c 414,-45 953,-43 1385,5 1604,179 3092,985 4132,2239 782,944 1273,2094 1407,3300 50,451 50,980 1,1425 -253,2247 -1703,4192 -3790,5083 -815,348 -1689,516 -2596,500 z m 414,-200 c -23,-2 -64,-2 -90,0 -26,2 -7,3 42,3 50,0 71,-1 48,-3 z m 175,-10 c -15,-2 -42,-2 -60,0 -18,2 -6,4 27,4 33,0 48,-2 33,-4 z m 85,-10 c -7,-2 -19,-2 -25,0 -7,3 -2,5 12,5 14,0 19,-2 13,-5 z m -3097,-529 c 1,-5 -73,-46 -166,-91 -119,-58 -167,-77 -166,-66 3,16 302,174 320,169 6,-1 11,-6 12,-12 z m 3054,-139 c 1131,-107 2174,-549 3035,-1286 154,-132 452,-430 584,-584 663,-775 1091,-1705 1245,-2705 46,-300 60,-490 60,-830 0,-340 -14,-528 -60,-830 -151,-991 -586,-1937 -1245,-2705 -132,-154 -430,-452 -584,-584 -768,-659 -1714,-1094 -2705,-1245 -302,-46 -490,-60 -830,-60 -340,0 -530,14 -830,60 -1000,154 -1930,582 -2705,1245 -154,132 -452,430 -584,584 -739,863 -1174,1892 -1287,3045 -24,241 -24,739 0,980 112,1141 526,2132 1260,3015 129,155 486,512 641,641 943,784 2044,1216 3255,1278 148,7 588,-4 750,-19 z m -3408,-39 c 7,4 8,2 4,-4 -11,-18 -26,-14 -25,6 0,10 3,12 6,4 2,-6 10,-9 15,-6 z m 6108,-172 c 0,-2 -9,0 -20,6 -11,6 -20,13 -20,16 0,2 9,0 20,-6 11,-6 20,-13 20,-16 z m 80,-50 c 0,-2 -9,0 -20,6 -11,6 -20,13 -20,16 0,2 9,0 20,-6 11,-6 20,-13 20,-16 z m 220,-150 c 0,-3 -13,4 -30,16 -16,12 -30,24 -30,26 0,3 14,-4 30,-16 17,-12 30,-24 30,-26 z M 1410,9896 c 0,-2 -8,-10 -17,-17 -16,-13 -17,-12 -4,4 13,16 21,21 21,13 z m -160,-236 c -6,-11 -13,-20 -16,-20 -2,0 0,9 6,20 6,11 13,20 16,20 2,0 0,-9 -6,-20 z m 10514,-346 c 3,-8 2,-12 -4,-9 -6,3 -10,10 -10,16 0,14 7,11 14,-7 z m 97,-185 c 27,-56 49,-103 47,-105 -2,-2 -27,44 -56,101 -28,58 -50,105 -47,105 3,0 28,-45 56,-101 z M 327,6923 c -3,-10 -5,-2 -5,17 0,19 2,27 5,18 2,-10 2,-26 0,-35 z m -10,-125 c -2,-18 -4,-6 -4,27 0,33 2,48 4,33 2,-15 2,-42 0,-60 z m -10,-211 c -2,-23 -3,-1 -3,48 0,50 1,68 3,42 2,-26 2,-67 0,-90 z m 12190,-479 c -2,-29 -3,-8 -3,47 0,55 1,79 3,53 2,-26 2,-71 0,-100 z m 10,-125 c -2,-16 -4,-5 -4,22 0,28 2,40 4,28 2,-13 2,-35 0,-50 z m -14,-48 c 4,-68 3,-87 -3,-60 -9,39 -14,172 -6,164 2,-2 6,-49 9,-104 z m 0,-107 c 8,-5 6,-8 -5,-8 -14,0 -18,8 -17,38 2,34 2,34 6,7 3,-16 10,-33 16,-37 z M 949,3673 c 28,-57 49,-103 46,-103 -5,0 -105,196 -105,206 0,13 7,0 59,-103 z m 99,-198 c -3,-3 -9,2 -12,12 -6,14 -5,15 5,6 7,-7 10,-15 7,-18 z m 10392,-519 c 0,-2 -8,-10 -17,-17 -16,-13 -17,-12 -4,4 13,16 21,21 21,13 z M 2921,1393 c 13,-16 12,-17 -3,-4 -17,13 -22,21 -14,21 2,0 10,-8 17,-17 z m 239,-159 c 0,-2 -9,0 -20,6 -11,6 -20,13 -20,16 0,2 9,0 20,-6 11,-6 20,-13 20,-16 z m 80,-50 c 0,-2 -9,0 -20,6 -11,6 -20,13 -20,16 0,2 9,0 20,-6 11,-6 20,-13 20,-16 z M 9210,985 c 0,-6 -177,-95 -187,-94 -6,0 174,96 185,98 1,1 2,-1 2,-4 z M 5883,323 c -7,-2 -19,-2 -25,0 -7,3 -2,5 12,5 14,0 19,-2 13,-5 z m 125,-10 c -15,-2 -42,-2 -60,0 -18,2 -6,4 27,4 33,0 48,-2 33,-4 z m 205,-10 c -23,-2 -64,-2 -90,0 -26,2 -7,3 42,3 50,0 71,-1 48,-3 z"
       id="path9283"
       style="fill:#ee82ee;fill-opacity:1" />
    <path
       d="m 3590,11830 c -41,-21 -72,-39 -67,-40 10,0 147,69 147,75 0,7 3,8 -80,-35 z"
       id="path9285"
       style="fill:#ee82ee;fill-opacity:1" />
  </g>
</svg>
